<svg xmlns="http://www.w3.org/2000/svg" viewBox="0 0 1024 1024"><g id="Layer_2" data-name="Layer 2"><g id="Codebook_Icon_SQ_Dark_v1" data-name="Codebook Icon SQ Dark v1"><path d="M1024,511.66c0,493.57-18.32,511.88-512,511.88v.46C18.32,1024,0,1005.68,0,512.11v-.22C0,18.32,18.32,0,512,0V.46c493.68,0,512,18.31,512,511.88" style="fill:#fff"/><path d="M512,81.18C274.07,81.18,81.18,274.07,81.18,512S274.07,942.82,512,942.82,942.82,749.93,942.82,512,749.93,81.18,512,81.18ZM512,768c-141.39,0-256-114.62-256-256S370.61,256,512,256,768,370.62,768,512,653.38,768,512,768Z" style="fill:#f2f2f2"/><path d="M693,693a255.21,255.21,0,0,1-181,75c-141.39,0-256-114.62-256-256S370.61,256,512,256a255.21,255.21,0,0,1,181,75L816.65,207.38A429.5,429.5,0,0,0,512,81.18C274.07,81.18,81.18,274.07,81.18,512S274.07,942.82,512,942.82a429.5,429.5,0,0,0,304.65-126.2Z" style="fill:#0d0d0d"/></g></g></svg>